<?xml version="1.0" encoding="UTF-8"?>
<svg id="Layer_2" data-name="Layer 2" xmlns="http://www.w3.org/2000/svg" viewBox="0 0 702.2 159.05">
  <defs>
    <style>
      .cls-1 {
        font-size: 72.27px;
      }

      .cls-1, .cls-2 {
        font-family: Unbounded-ExtraBold, Unbounded;
        font-variation-settings: 'wght' 800;
        font-weight: 700;
      }

      .cls-1, .cls-2, .cls-3 {
        fill: #fff;
      }

      .cls-2 {
        font-size: 34.58px;
      }

      .cls-4 {
        letter-spacing: -.1em;
      }

      .cls-5 {
        letter-spacing: -.01em;
      }

      .cls-6 {
        letter-spacing: -.03em;
      }

      .cls-7 {
        letter-spacing: -.01em;
      }

      .cls-8 {
        letter-spacing: 0em;
      }

      .cls-9 {
        letter-spacing: 0em;
      }
    </style>
  </defs>
  <g id="Layer_1-2" data-name="Layer 1">
    <g>
      <path class="cls-3" d="M136.15,135.88c-2.74-6.87.61-14.66,7.48-17.4,6.87-2.74,14.66.61,17.4,7.48.1.24.18.48.26.72-.14-1.17-.43-2.34-.89-3.48-2.83-7.1-10.88-10.56-17.97-7.73-7.1,2.83-10.56,10.88-7.73,17.97.46,1.14,1.05,2.19,1.75,3.14-.11-.23-.21-.46-.3-.7Z"/>
      <path class="cls-3" d="M100.97,140.52c-3.88-.32-7.46,1.32-9.78,4.1-2.98-3.27-7.59-4.88-12.2-3.81-6.8,1.58-11.03,8.37-9.46,15.16.25,1.1.64,2.12,1.15,3.07-.06-.22-.12-.45-.18-.68-1.53-6.58,2.57-13.15,9.15-14.68,3.82-.89,7.64.13,10.47,2.42.4.33.79.68,1.15,1.06,1.46,1.53,2.55,3.46,3.06,5.68.05.23.1.46.14.69.03-1.07-.07-2.17-.32-3.26-.36-1.55-.99-2.96-1.82-4.2,2.21-2.01,5.21-3.13,8.41-2.87,6.12.51,10.67,5.88,10.16,12.01-.02.21-.04.42-.07.63.33-.92.54-1.9.63-2.92.53-6.32-4.17-11.88-10.5-12.4Z"/>
      <path class="cls-3" d="M22.5,155.14c.37-4.49,4.31-7.82,8.8-7.45,4.49.37,7.82,4.31,7.45,8.8-.01.16-.03.31-.05.46.24-.67.4-1.39.46-2.14.39-4.64-3.06-8.71-7.7-9.09s-8.71,3.06-9.09,7.7c-.06.75-.02,1.48.1,2.18,0-.15.01-.31.03-.47Z"/>
      <path class="cls-3" d="M92.11,131.28l1.48-.87c1.34-5.02-.92-10.62-.92-10.62-.87,3.27-.75,8.33-.56,11.49ZM88,0C39.4,0,0,39.4,0,88c0,20.58,7.06,39.5,18.89,54.49,1.58-6.44,7.39-11.21,14.32-11.21s12.73,4.77,14.31,11.2c2.26-2.07,5.27-3.34,8.58-3.34,2.86,0,5.49.94,7.61,2.54,1.18-6.96,7.24-12.25,14.53-12.25,3.95,0,7.54,1.56,10.18,4.09,0,0,.01,0,.01,0,0,0,2.13-10.91-.96-17.18-3.09-6.27-1.18-13.79-3.68-20.44-1.34-3.56-1.3-7.51-.97-10.42.31-2.73-.03-5.49-.95-8.09-1.38-3.89-2.21-8.4-2.53-9.77-.29-1.25-1.23-3.85-1.82-5.46-.27-.73-.7-1.4-1.25-1.96-.45-.46-.71-.94-.83-1.18-.05-.11-.02-.24.08-.32.11-.08.27-.06.36.05.25.31.66.44.66.44.14-1.79-.54-2.49-.92-2.74-.13-.09-.18-.26-.11-.4h0c.08-.16.26-.22.41-.14.86.43,1.14,1.59,1.14,1.59.21-1.18-.43-1.85-.87-2.16-.19-.13-.28-.37-.21-.59.09-.29.39-.44.67-.34,3.41,1.23,2.4,5.2,3.21,6.91.85,1.79,2.26,4.61,3.29,9.03,1.03,4.42,4.33,6.68,4.33,6.68.33.17.65.35.97.53-.12-1.36.14-2.48.57-3.4l-.39-.51c-.19-.25.04-.61.35-.54l.57.13c1.18-1.71,2.85-2.45,2.85-2.45-.73-.98-.4-2.25-.4-2.25.69,1.56,1.46,1.75,3.67,2.45,2.22.7,5.77,3.62,3.91,7.87-1.04,2.36-3.11,3.29-4.75,3.64,6.29,6.38,9.15,14.44,10.03,17.37,0,0,.69,2.06.51,4.17-.04.44-.42.78-.87.78-.42,0-.77-.33-.84-.75-.09-.58-.28-1.3-.67-1.55,0,0-.02.76-.24,1.38-.08.23-.33.35-.56.27-.22-.08-.34-.33-.26-.55.19-.54.48-1.67.2-2.96-2.23-8.1-8.06-12.36-8.06-12.36-1.59,1.71-1.05,4.97,1.42,8.49s3.72,14.25,3.72,14.25l-2.93,1.5c2.11,8.64.57,16.2.2,17.76,1.58-.58,3.29-.9,5.08-.9,3.18,0,6.13,1.01,8.54,2.73,1.55-4.09,5.5-6.99,10.13-6.99,1.51,0,2.95.31,4.25.87-.01-.29-.02-.58-.02-.87,0-9.6,7.78-17.39,17.39-17.39,2.13,0,4.17.38,6.05,1.08,1.25-4.6,5.45-7.99,10.45-7.99,1.93,0,3.75.51,5.32,1.4,2.7-3.25,6.78-5.32,11.34-5.32.18,0,.36,0,.54.01.3-2.94.45-5.93.45-8.95C176.01,39.4,136.61,0,88,0ZM12.32,97.52c-2.01,0-3.63-1.63-3.63-3.63s1.63-3.63,3.63-3.63,3.63,1.63,3.63,3.63-1.63,3.63-3.63,3.63ZM19.29,68.4c0-1.03.83-1.86,1.86-1.86s1.86.83,1.86,1.86-.83,1.86-1.86,1.86-1.86-.83-1.86-1.86ZM37.98,127.35c-.01-.15-.03-.31-.06-.46-.68-4.46-4.85-7.52-9.31-6.84-4.46.68-7.52,4.85-6.84,9.31.02.16.05.31.08.46-.29-.66-.5-1.36-.61-2.11-.71-4.61,2.46-8.92,7.06-9.62,4.61-.71,8.92,2.46,9.62,7.06.11.74.13,1.48.05,2.19ZM43.05,35.62l-1.65-.29-1.17,1.2-.24-1.66-1.5-.74,1.51-.74.24-1.66,1.17,1.2,1.65-.28-.78,1.48.78,1.49ZM50.71,11.17l.45-3.04,2.14,2.2,3.03-.51-1.43,2.71,1.42,2.72-3.02-.52-2.15,2.19-.44-3.04-2.75-1.36,2.75-1.35ZM56.32,112.34c-1,0-1.82-.81-1.82-1.82s.81-1.82,1.82-1.82,1.82.81,1.82,1.82-.81,1.82-1.82,1.82ZM58.15,69.68l-3.49-.6-2.48,2.53-.5-3.51-3.17-1.57,3.18-1.56.52-3.51,2.47,2.54,3.49-.59-1.65,3.13,1.64,3.14ZM62.83,90.26c-2.01,0-3.63-1.63-3.63-3.63s1.63-3.63,3.63-3.63,3.63,1.63,3.63,3.63-1.63,3.63-3.63,3.63ZM77.21,42.83l.85,4.93-4.43-2.33-4.43,2.33.85-4.93-3.58-3.49,4.95-.72,2.21-4.48,2.21,4.48,4.95.72-3.58,3.49ZM92.28,18.87l-3.49-.6-2.48,2.53-.5-3.51-3.17-1.57,3.18-1.56.52-3.51,2.47,2.54,3.49-.59-1.65,3.13,1.64,3.14ZM103.86,50.2l-1.65-.29-1.17,1.2-.24-1.66-1.5-.74,1.51-.74.24-1.66,1.17,1.2,1.65-.28-.78,1.48.78,1.49ZM119.12,121.67c-1.33-4.96-6.43-7.91-11.39-6.58-4.96,1.33-7.91,6.43-6.58,11.39.05.17.1.34.15.51-.41-.71-.73-1.48-.95-2.31-1.37-5.13,1.67-10.39,6.8-11.77,5.13-1.37,10.39,1.67,11.77,6.8.22.83.33,1.66.33,2.47-.04-.17-.08-.35-.12-.52ZM119.24,75.33c-1.03,0-1.86-.83-1.86-1.86s.83-1.86,1.86-1.86,1.86.83,1.86,1.86-.83,1.86-1.86,1.86ZM139.28,42.67c2.01,0,3.63,1.63,3.63,3.63s-1.63,3.63-3.63,3.63-3.63-1.63-3.63-3.63,1.63-3.63,3.63-3.63ZM152.72,98.38c-1.88-7.03-9.11-11.21-16.14-9.32-7.03,1.88-11.21,9.11-9.32,16.14.07.24.14.48.22.72-.58-1-1.03-2.1-1.35-3.27-1.94-7.26,2.37-14.73,9.63-16.67,7.26-1.94,14.73,2.37,16.67,9.63.31,1.17.46,2.35.47,3.5-.05-.24-.11-.49-.17-.73ZM157.72,64.76c-1.03,0-1.86-.83-1.86-1.86s.83-1.86,1.86-1.86,1.86.83,1.86,1.86-.83,1.86-1.86,1.86Z"/>
    </g>
    <g>
      <text class="cls-1" transform="translate(231.94 85.95)"><tspan x="0" y="0">SK</tspan><tspan class="cls-4" x="125.68" y="0">Y</tspan><tspan x="186.67" y="0">GUILD</tspan></text>
      <text class="cls-2" transform="translate(234.54 126.45)"><tspan x="0" y="0">look u</tspan><tspan class="cls-9" x="129.09" y="0">p</tspan><tspan class="cls-8" x="157.48" y="0">.</tspan><tspan x="168.09" y="0"> </tspan><tspan class="cls-7" x="176.46" y="0">s</tspan><tspan class="cls-5" x="202.67" y="0">t</tspan><tspan x="223.63" y="0">a</tspan><tspan class="cls-6" x="252.64" y="0">y</tspan><tspan x="279.2" y="0" xml:space="preserve"> curious</tspan><tspan class="cls-8" x="454.59" y="0">.</tspan></text>
    </g>
  </g>
</svg>