<?xml version="1.0" encoding="UTF-8"?>
<svg id="Layer_1" xmlns="http://www.w3.org/2000/svg" xmlns:xlink="http://www.w3.org/1999/xlink" version="1.1" viewBox="0 0 1200 630">
  <!-- Generator: Adobe Illustrator 30.2.1, SVG Export Plug-In . SVG Version: 2.1.1 Build 1)  -->
  <defs>
    <style>
      .st0 {
        fill: url(#linear-gradient1);
      }

      .st1 {
        font-size: 20px;
      }

      .st1, .st2, .st3, .st4, .st5, .st6, .st7, .st8 {
        fill: #fff;
      }

      .st1, .st3 {
        font-family: Poppins-Regular, Poppins;
      }

      .st1, .st3, .st4, .st5, .st6, .st7, .st8 {
        isolation: isolate;
      }

      .st1, .st8 {
        opacity: .5;
      }

      .st9 {
        fill: url(#radial-gradient);
      }

      .st10 {
        fill: url(#linear-gradient);
      }

      .st11 {
        fill: url(#radial-gradient1);
      }

      .st3 {
        font-size: 28px;
      }

      .st3, .st6 {
        opacity: .8;
      }

      .st4 {
        opacity: .7;
      }

      .st5 {
        opacity: .9;
      }

      .st7 {
        opacity: .6;
      }
    </style>
    <linearGradient id="linear-gradient" x1="99.9" y1="815.7" x2="100.9" y2="814.7" gradientTransform="translate(-119900 513896) scale(1200 -630)" gradientUnits="userSpaceOnUse">
      <stop offset="0" stop-color="#0a0e17"/>
      <stop offset=".5" stop-color="#1a1040"/>
      <stop offset="1" stop-color="#0a0e17"/>
    </linearGradient>
    <radialGradient id="radial-gradient" cx="100.3" cy="815.1" fx="100.3" fy="815.1" r=".5" gradientTransform="translate(-59900 407766) scale(600 -500)" gradientUnits="userSpaceOnUse">
      <stop offset="0" stop-color="#7d49f8" stop-opacity=".4"/>
      <stop offset="1" stop-color="#7d49f8" stop-opacity="0"/>
    </radialGradient>
    <radialGradient id="radial-gradient1" cx="100.4" cy="815.2" fx="100.4" fy="815.2" r=".5" gradientTransform="translate(-69350 456946) scale(700 -560)" gradientUnits="userSpaceOnUse">
      <stop offset="0" stop-color="#f11856" stop-opacity=".3"/>
      <stop offset="1" stop-color="#f11856" stop-opacity="0"/>
    </radialGradient>
    <linearGradient id="linear-gradient1" x1="99.7" y1="770" x2="100.7" y2="769" gradientTransform="translate(-39500 3680) scale(400 -4)" gradientUnits="userSpaceOnUse">
      <stop offset="0" stop-color="#7d49f8"/>
      <stop offset="1" stop-color="#f11856"/>
    </linearGradient>
  </defs>
  <rect class="st10" width="1200" height="630"/>
  <ellipse class="st9" cx="300" cy="200" rx="300" ry="250"/>
  <ellipse class="st11" cx="900" cy="450" rx="350" ry="280"/>
  <circle class="st6" cx="100" cy="80" r="2"/>
  <circle class="st7" cx="250" cy="150" r="1.5"/>
  <circle class="st5" cx="400" cy="50" r="2"/>
  <circle class="st8" cx="550" cy="120" r="1"/>
  <circle class="st4" cx="700" cy="80" r="2.5"/>
  <circle class="st7" cx="850" cy="140" r="1.5"/>
  <circle class="st6" cx="1000" cy="60" r="2"/>
  <circle class="st8" cx="1100" cy="130" r="1"/>
  <circle class="st7" cx="150" cy="500" r="1.5"/>
  <circle class="st4" cx="300" cy="550" r="2"/>
  <circle class="st8" cx="500" cy="580" r="1"/>
  <circle class="st6" cx="750" cy="520" r="2"/>
  <circle class="st7" cx="950" cy="560" r="1.5"/>
  <circle class="st4" cx="1050" cy="500" r="2"/>
  <circle class="st8" cx="80" cy="300" r="1"/>
  <circle class="st7" cx="1120" cy="350" r="1.5"/>
  <text class="st3" transform="translate(500.9 351)"><tspan x="0" y="0">Look up. Stay curious.</tspan></text>
  <text class="st1" transform="translate(353.2 401)"><tspan x="0" y="0">Join the astronomy community • Log observations • Earn badges</tspan></text>
  <path class="st0" d="M402,600h396c1.1,0,2,.9,2,2h0c0,1.1-.9,2-2,2h-396c-1.1,0-2-.9-2-2h0c0-1.1.9-2,2-2Z"/>
  <g>
    <g>
      <path class="st2" d="M483.9,287.8c-1.6-3.9.3-8.3,4.3-9.9,3.9-1.6,8.3.3,9.9,4.3,0,.1.1.3.1.4,0-.7-.2-1.3-.5-2-1.6-4-6.2-6-10.2-4.4-4,1.6-6,6.2-4.4,10.2.3.7.6,1.2,1,1.8,0-.1-.1-.3-.2-.4Z"/>
      <path class="st2" d="M463.9,290.5c-2.2-.2-4.2.8-5.6,2.3-1.7-1.9-4.3-2.8-6.9-2.2-3.9.9-6.3,4.8-5.4,8.6.1.6.4,1.2.7,1.7,0-.1,0-.3-.1-.4-.9-3.7,1.5-7.5,5.2-8.4,2.2-.5,4.3,0,6,1.4.2.2.4.4.7.6.8.9,1.4,2,1.7,3.2,0,.1,0,.3,0,.4,0-.6,0-1.2-.2-1.9-.2-.9-.6-1.7-1-2.4,1.3-1.1,3-1.8,4.8-1.6,3.5.3,6.1,3.3,5.8,6.8,0,.1,0,.2,0,.4.2-.5.3-1.1.4-1.7.3-3.6-2.4-6.8-6-7.1Z"/>
      <path class="st2" d="M419.2,298.8c.2-2.6,2.5-4.5,5-4.2,2.6.2,4.5,2.5,4.2,5,0,0,0,.2,0,.3.1-.4.2-.8.3-1.2.2-2.6-1.7-5-4.4-5.2s-5,1.7-5.2,4.4c0,.4,0,.8,0,1.2,0,0,0-.2,0-.3Z"/>
      <path class="st2" d="M458.8,285.2l.8-.5c.8-2.9-.5-6-.5-6-.5,1.9-.4,4.7-.3,6.5ZM456.5,210.5c-27.7,0-50.1,22.4-50.1,50.1s4,22.5,10.8,31c.9-3.7,4.2-6.4,8.1-6.4s7.2,2.7,8.1,6.4c1.3-1.2,3-1.9,4.9-1.9s3.1.5,4.3,1.4c.7-4,4.1-7,8.3-7s4.3.9,5.8,2.3c0,0,0,0,0,0,0,0,1.2-6.2-.5-9.8s-.7-7.8-2.1-11.6c-.8-2-.7-4.3-.6-5.9.2-1.6,0-3.1-.5-4.6-.8-2.2-1.3-4.8-1.4-5.6-.2-.7-.7-2.2-1-3.1-.2-.4-.4-.8-.7-1.1-.3-.3-.4-.5-.5-.7,0,0,0-.1,0-.2,0,0,.2,0,.2,0,.1.2.4.2.4.2,0-1-.3-1.4-.5-1.6,0,0-.1-.1,0-.2h0c0,0,.1-.1.2,0,.5.2.6.9.6.9.1-.7-.2-1.1-.5-1.2-.1,0-.2-.2-.1-.3,0-.2.2-.2.4-.2,1.9.7,1.4,3,1.8,3.9.5,1,1.3,2.6,1.9,5.1.6,2.5,2.5,3.8,2.5,3.8.2,0,.4.2.6.3,0-.8,0-1.4.3-1.9l-.2-.3c-.1-.1,0-.3.2-.3h.3c.7-.9,1.6-1.3,1.6-1.3-.4-.6-.2-1.3-.2-1.3.4.9.8,1,2.1,1.4,1.3.4,3.3,2.1,2.2,4.5-.6,1.3-1.8,1.9-2.7,2.1,3.6,3.6,5.2,8.2,5.7,9.9,0,0,.4,1.2.3,2.4,0,.3-.2.4-.5.4-.2,0-.4-.2-.5-.4,0-.3-.2-.7-.4-.9,0,0,0,.4-.1.8,0,.1-.2.2-.3.2-.1,0-.2-.2-.1-.3.1-.3.3-.9.1-1.7-1.3-4.6-4.6-7-4.6-7-.9,1-.6,2.8.8,4.8s2.1,8.1,2.1,8.1l-1.7.9c1.2,4.9.3,9.2.1,10.1.9-.3,1.9-.5,2.9-.5,1.8,0,3.5.6,4.9,1.6.9-2.3,3.1-4,5.8-4s1.7.2,2.4.5c0-.2,0-.3,0-.5,0-5.5,4.4-9.9,9.9-9.9s2.4.2,3.4.6c.7-2.6,3.1-4.5,5.9-4.5s2.1.3,3,.8c1.5-1.8,3.9-3,6.5-3s.2,0,.3,0c.2-1.7.3-3.4.3-5.1,0-27.7-22.4-50.1-50.1-50.1ZM413.4,266c-1.1,0-2.1-.9-2.1-2.1s.9-2.1,2.1-2.1,2.1.9,2.1,2.1-.9,2.1-2.1,2.1ZM417.4,249.4c0-.6.5-1.1,1.1-1.1s1.1.5,1.1,1.1-.5,1.1-1.1,1.1-1.1-.5-1.1-1.1ZM428,283c0,0,0-.2,0-.3-.4-2.5-2.8-4.3-5.3-3.9-2.5.4-4.3,2.8-3.9,5.3,0,0,0,.2,0,.3-.2-.4-.3-.8-.3-1.2-.4-2.6,1.4-5.1,4-5.5,2.6-.4,5.1,1.4,5.5,4,0,.4,0,.8,0,1.2ZM430.9,230.8l-.9-.2-.7.7v-.9c-.1,0-1-.4-1-.4l.9-.4v-.9c.1,0,.8.7.8.7l.9-.2-.4.8.4.8ZM435.3,216.9l.3-1.7,1.2,1.3,1.7-.3-.8,1.5.8,1.5-1.7-.3-1.2,1.2-.2-1.7-1.6-.8,1.6-.8ZM438.5,274.4c-.6,0-1-.5-1-1s.5-1,1-1,1,.5,1,1-.5,1-1,1ZM439.5,250.1l-2-.3-1.4,1.4-.3-2-1.8-.9,1.8-.9.3-2,1.4,1.4,2-.3-.9,1.8.9,1.8ZM442.2,261.9c-1.1,0-2.1-.9-2.1-2.1s.9-2.1,2.1-2.1,2.1.9,2.1,2.1-.9,2.1-2.1,2.1ZM450.3,234.9l.5,2.8-2.5-1.3-2.5,1.3.5-2.8-2-2,2.8-.4,1.3-2.6,1.3,2.6,2.8.4-2,2ZM458.9,221.2l-2-.3-1.4,1.4-.3-2-1.8-.9,1.8-.9.3-2,1.4,1.4,2-.3-.9,1.8.9,1.8ZM465.5,239.1l-.9-.2-.7.7v-.9c-.1,0-1-.4-1-.4l.9-.4v-.9c.1,0,.8.7.8.7l.9-.2-.4.8.4.8ZM474.2,279.7c-.8-2.8-3.7-4.5-6.5-3.7-2.8.8-4.5,3.7-3.7,6.5,0,0,0,.2,0,.3-.2-.4-.4-.8-.5-1.3-.8-2.9,1-5.9,3.9-6.7,2.9-.8,5.9,1,6.7,3.9.1.5.2.9.2,1.4,0,0,0-.2,0-.3ZM474.3,253.4c-.6,0-1.1-.5-1.1-1.1s.5-1.1,1.1-1.1,1.1.5,1.1,1.1-.5,1.1-1.1,1.1ZM485.7,234.8c1.1,0,2.1.9,2.1,2.1s-.9,2.1-2.1,2.1-2.1-.9-2.1-2.1.9-2.1,2.1-2.1ZM493.3,266.5c-1.1-4-5.2-6.4-9.2-5.3-4,1.1-6.4,5.2-5.3,9.2,0,.1,0,.3.1.4-.3-.6-.6-1.2-.8-1.9-1.1-4.1,1.3-8.4,5.5-9.5,4.1-1.1,8.4,1.3,9.5,5.5.2.7.3,1.3.3,2,0-.1,0-.3,0-.4ZM496.2,247.4c-.6,0-1.1-.5-1.1-1.1s.5-1.1,1.1-1.1,1.1.5,1.1,1.1-.5,1.1-1.1,1.1Z"/>
    </g>
    <g>
      <g>
        <path class="st2" d="M539.9,249.3h9.7c.1.7.5,1.3,1,1.9.6.5,1.4.9,2.4,1.2,1,.3,2.2.4,3.6.4s3.4-.2,4.4-.7c1.1-.4,1.6-1.1,1.6-2s-.3-1.1-.9-1.5c-.6-.4-1.8-.7-3.6-.8l-5.4-.5c-4.4-.3-7.7-1.3-9.6-2.9-2-1.6-3-3.8-3-6.5s.6-4.1,1.9-5.6c1.3-1.5,3.1-2.6,5.4-3.4s5-1.2,8.1-1.2,5.7.4,8,1.3c2.3.9,4.2,2,5.6,3.6,1.4,1.5,2.1,3.4,2.3,5.4h-9.7c-.1-.6-.4-1.1-.9-1.6-.5-.5-1.2-.8-2.2-1-.9-.2-2-.4-3.3-.4s-3.1.2-4.1.6c-1,.4-1.5,1-1.5,1.9s.3,1.1.9,1.5c.6.4,1.7.6,3.3.8l6,.5c3,.2,5.4.7,7.2,1.4,1.8.7,3.1,1.6,4,2.8.8,1.2,1.2,2.7,1.2,4.5s-.7,4.1-2,5.8c-1.3,1.7-3.2,2.9-5.5,3.9-2.4.9-5.1,1.4-8.3,1.4s-6.1-.5-8.6-1.4c-2.5-.9-4.4-2.2-5.8-3.8-1.4-1.6-2.1-3.5-2.2-5.7Z"/>
        <path class="st2" d="M576.3,259.4v-30.8h9.5v23.3l-2.5-2,16.4-21.3h10l-24.8,30.8h-8.7ZM591.1,245l7-5.7,12.1,20.1h-10.9l-8.3-14.4Z"/>
        <path class="st2" d="M610,228.6h10.5l10.7,13.7h-4.1l10.7-13.7h10.5l-16.1,20.5h-6.2c0,.1-16.1-20.5-16.1-20.5ZM624.5,259.4v-15.1h9.6v15.1h-9.6Z"/>
        <path class="st2" d="M679.1,246.1c0,1.8-.5,3.6-1.1,5.2-.7,1.7-1.6,3.2-2.9,4.5-1.3,1.3-2.9,2.4-4.8,3.1-1.9.8-4.2,1.1-6.7,1.1s-4.7-.3-6.8-1-4-1.7-5.6-3.1c-1.6-1.4-2.9-3-3.8-5-.9-2-1.4-4.3-1.4-6.9s.5-4.9,1.4-6.9c.9-2,2.2-3.7,3.9-5,1.7-1.4,3.6-2.4,5.8-3.1s4.5-1,7.1-1,6.5.5,9,1.6c2.5,1,4.5,2.5,6.1,4.3,1.5,1.8,2.5,3.9,3,6.3h-9.6c-.2-.9-.8-1.7-1.5-2.3-.8-.6-1.7-1.1-2.9-1.5-1.2-.3-2.4-.5-3.9-.5s-3.3.3-4.5.9c-1.3.6-2.3,1.5-2.9,2.7-.7,1.2-1,2.7-1,4.6s.4,3.4,1.1,4.7c.8,1.3,1.8,2.2,3.2,2.8,1.4.6,3.1.9,5,.9s3.5-.2,5-.7c1.4-.5,2.6-1.2,3.5-2.2.9-1,1.4-2.2,1.6-3.6h4.1ZM665.6,249v-6h16.8v16.4h-6.7l-1.4-12,1.8,1.6h-10.4Z"/>
        <path class="st2" d="M696.3,245.4c0,1.3.2,2.4.7,3.3s1.2,1.6,2.1,2.1c.9.5,2.1.8,3.5.8s2.6-.2,3.6-.7c.9-.5,1.6-1.2,2.1-2.1.5-.9.7-2,.7-3.3v-16.9h9.6v17.4c0,2.8-.7,5.3-2,7.4-1.3,2.1-3.2,3.8-5.6,5-2.4,1.2-5.2,1.8-8.4,1.8s-5.9-.6-8.3-1.8c-2.4-1.2-4.2-2.8-5.6-5-1.3-2.1-2-4.6-2-7.4v-17.4h9.6v16.9Z"/>
        <path class="st2" d="M723.5,228.6h9.6v30.8h-9.6v-30.8Z"/>
        <path class="st2" d="M748,228.6v26.6l-4.3-4.3h23v8.5h-28.3v-30.8h9.6Z"/>
        <path class="st2" d="M786,228.6c3.7,0,6.9.6,9.7,1.9,2.8,1.3,4.9,3.1,6.5,5.4s2.3,5,2.3,8.1-.8,5.8-2.3,8.1c-1.5,2.3-3.7,4.1-6.5,5.4-2.8,1.3-6,1.9-9.7,1.9h-15.9v-30.8h15.9ZM779.7,255.3l-4.4-4.4h11.5c1.7,0,3.1-.3,4.3-.8,1.2-.6,2.2-1.4,2.8-2.4s1-2.3,1-3.7-.3-2.7-1-3.7c-.7-1-1.6-1.8-2.8-2.4-1.2-.6-2.7-.8-4.3-.8h-11.5l4.4-4.4v22.5Z"/>
      </g>
      <g>
        <path class="st2" d="M540.9,267.3h4.5v15.2h-4.5v-15.2Z"/>
        <path class="st2" d="M554.3,282.8c-1.5,0-2.8-.2-3.9-.7-1.1-.5-2-1.2-2.6-2.1-.6-.9-.9-1.9-.9-3.1s.3-2.2.9-3.1c.6-.9,1.5-1.6,2.6-2.1,1.1-.5,2.4-.7,3.8-.7s2.8.2,3.9.7c1.1.5,2,1.2,2.6,2.1.6.9.9,1.9.9,3.1s-.3,2.2-.9,3.1c-.6.9-1.5,1.6-2.6,2.1-1.1.5-2.4.7-3.8.7ZM554.3,279.5c.6,0,1.1-.1,1.5-.3.4-.2.7-.5.9-.9.2-.4.3-.9.3-1.4s-.1-1-.3-1.4c-.2-.4-.5-.7-.9-.9-.4-.2-.9-.3-1.5-.3s-1.1.1-1.5.3-.7.5-1,.9c-.2.4-.3.9-.3,1.4s.1,1,.3,1.4c.2.4.5.7,1,.9.4.2.9.3,1.5.3Z"/>
        <path class="st2" d="M570.1,282.8c-1.5,0-2.8-.2-3.9-.7-1.1-.5-2-1.2-2.6-2.1-.6-.9-.9-1.9-.9-3.1s.3-2.2.9-3.1c.6-.9,1.5-1.6,2.6-2.1,1.1-.5,2.4-.7,3.8-.7s2.8.2,3.9.7c1.1.5,2,1.2,2.6,2.1.6.9.9,1.9.9,3.1s-.3,2.2-.9,3.1c-.6.9-1.5,1.6-2.6,2.1-1.1.5-2.4.7-3.8.7ZM570.1,279.5c.6,0,1.1-.1,1.5-.3.4-.2.7-.5.9-.9.2-.4.3-.9.3-1.4s-.1-1-.3-1.4c-.2-.4-.5-.7-.9-.9-.4-.2-.9-.3-1.5-.3s-1.1.1-1.5.3-.7.5-1,.9c-.2.4-.3.9-.3,1.4s.1,1,.3,1.4c.2.4.5.7,1,.9.4.2.9.3,1.5.3Z"/>
        <path class="st2" d="M583.5,278.9l-1.2-.4,5.9-7.3h4.6l-9.9,11.3h-4v-15.2h4.5v11.6ZM585,277l3.4-2.3,4.7,7.8h-5l-3.1-5.5Z"/>
        <path class="st2" d="M603.6,282.8c-1,0-2-.2-2.7-.6-.8-.4-1.3-1-1.7-1.8-.4-.8-.6-1.7-.6-2.8v-6.3h4.5v5.7c0,.7.2,1.3.6,1.7s.9.6,1.6.6.9,0,1.3-.3.6-.5.8-.9c.2-.4.3-.8.3-1.4l1.4.7c-.2,1.2-.5,2.2-1,3s-1.1,1.4-1.9,1.8c-.7.4-1.5.6-2.4.6ZM608.3,282.4l-.7-4.7v-6.6h4.5v7.3l.8,4h-4.5Z"/>
        <path class="st2" d="M614.3,271.2h4.5v3l-.2.5v3.4l.2,1v6.6h-4.5v-14.5ZM617.5,276.8c.2-1.2.5-2.3,1-3.2.5-.9,1.2-1.6,2.1-2.1.8-.5,1.8-.7,2.9-.7s2.1.2,2.9.7,1.5,1.2,1.9,2.1c.5.9.7,2,.7,3.2s-.2,2.2-.7,3.1c-.5.9-1.1,1.6-1.9,2.1-.8.5-1.8.7-2.9.7s-2-.2-2.9-.7c-.8-.5-1.5-1.2-2-2.1-.5-.9-.9-1.9-1-3.1ZM624.4,276.8c0-.5-.1-.9-.3-1.3-.2-.4-.5-.7-.9-.9-.4-.2-.8-.3-1.3-.3s-1,.1-1.4.3-.8.5-1.2.9c-.3.4-.6.8-.7,1.3.2.5.4.9.7,1.3.3.4.7.7,1.2.9.4.2.9.3,1.4.3s.9-.1,1.3-.3.7-.5.9-.9c.2-.4.3-.8.3-1.3Z"/>
        <path class="st2" d="M632.6,282.7c-.5,0-.9-.1-1.3-.3-.4-.2-.7-.5-.9-.9s-.3-.8-.3-1.3.1-.9.3-1.3c.2-.4.5-.7.9-.9.4-.2.8-.3,1.3-.3s.9.1,1.3.3c.4.2.7.5.9.9.2.4.3.8.3,1.3s-.1.9-.3,1.3c-.2.4-.5.7-.9.9-.4.2-.8.3-1.3.3Z"/>
        <path class="st2" d="M654.8,278.7c0,.9-.3,1.7-.8,2.3-.6.6-1.3,1.1-2.4,1.4-1,.3-2.2.5-3.6.5s-2.7-.2-3.8-.5c-1.1-.3-1.9-.8-2.5-1.5-.6-.6-.9-1.4-1-2.2h4.6c0,.3.3.5.5.7s.6.3,1,.5.9.2,1.5.2,1.2,0,1.6-.2c.4-.2.6-.4.6-.7s-.1-.4-.4-.5c-.3-.1-.8-.2-1.5-.2h-1.9c-1.4-.2-2.5-.4-3.3-.7-.8-.3-1.4-.7-1.8-1.2-.4-.5-.5-1-.5-1.7s.3-1.6.8-2.2,1.3-1,2.3-1.3c1-.3,2.1-.4,3.5-.4s2.5.2,3.5.5c1,.3,1.8.8,2.4,1.4.6.6,1,1.3,1.1,2.1h-4.6c0-.2-.2-.5-.4-.7s-.5-.3-.8-.5-.8-.2-1.3-.2-1.1,0-1.5.2c-.3.2-.5.4-.5.6s.1.4.3.5c.2.1.6.2,1.2.2l2.5.2c1.4,0,2.4.3,3.2.5.8.3,1.3.7,1.7,1.1.3.5.5,1,.5,1.7Z"/>
        <path class="st2" d="M655.3,274.5v-1.9l2.2-1,2-3.4h2.6v3h4.6v3.3h-4.6v2.8c0,.8.1,1.3.4,1.6.3.3.9.5,1.7.5s1,0,1.4-.1.8-.2,1.1-.3v3.3c-.4.1-1,.3-1.6.4-.6.1-1.3.2-2,.2-1.3,0-2.3-.2-3.2-.6-.8-.4-1.5-1-1.9-1.7-.4-.7-.6-1.6-.6-2.6v-3.4h-2.2Z"/>
        <path class="st2" d="M679.2,276.8c-.2,1.2-.5,2.2-1,3.1-.5.9-1.2,1.6-2,2.1-.8.5-1.8.7-2.9.7s-2.1-.2-2.9-.7c-.8-.5-1.5-1.2-2-2.1-.5-.9-.7-1.9-.7-3.1s.2-2.3.7-3.2c.5-.9,1.1-1.6,2-2.1.8-.5,1.8-.7,2.9-.7s2,.2,2.9.7,1.5,1.2,2.1,2.1c.5.9.9,2,1,3.2ZM672.2,276.8c0,.5.1.9.3,1.3.2.4.5.7.9.9s.8.3,1.3.3,1-.1,1.4-.3c.4-.2.8-.5,1.2-.9.3-.4.6-.8.7-1.3-.2-.5-.4-.9-.7-1.3-.3-.4-.7-.7-1.2-.9-.4-.2-.9-.3-1.4-.3s-.9.1-1.3.3c-.4.2-.7.5-.9.9-.2.4-.3.8-.3,1.3ZM678.2,282.4l-.5-4,.6-1.6-.6-1.6.5-4.1h4.7l-.7,5.6.7,5.6h-4.7Z"/>
        <path class="st2" d="M688.4,281.2l-4.6-10h5l4,10h-4.3ZM688.7,286c-.9,0-1.7-.1-2.4-.3s-1.3-.6-2-1v-3.1c.7.4,1.3.7,1.8.9s1.2.3,1.8.3,1-.1,1.4-.4c.4-.2.8-.7,1-1.3l4.1-9.9h4.8l-5.3,11.3c-.4.9-.9,1.6-1.5,2.1-.6.5-1.2.9-1.9,1.1s-1.3.3-2,.3Z"/>
        <path class="st2" d="M718.3,277.6c-.1,1-.5,1.9-1.1,2.7s-1.5,1.4-2.5,1.8c-1,.4-2.2.6-3.5.6s-2.6-.2-3.7-.7c-1.1-.5-1.9-1.2-2.5-2.1s-.9-1.9-.9-3.1.3-2.2.9-3.1,1.4-1.6,2.5-2.1c1.1-.5,2.3-.8,3.7-.8s2.4.2,3.5.6c1,.4,1.9,1,2.5,1.8s1,1.7,1.1,2.7h-4.5c-.1-.6-.4-1.1-.9-1.4-.5-.3-1-.5-1.7-.5s-1,.1-1.4.3c-.4.2-.7.5-.9.9-.2.4-.3.9-.3,1.5s.1,1.1.3,1.5.5.7.9.9c.4.2.9.3,1.4.3s1.3-.2,1.7-.5c.5-.3.8-.8.9-1.4h4.5Z"/>
        <path class="st2" d="M724.6,282.8c-1,0-2-.2-2.7-.6-.8-.4-1.3-1-1.7-1.8-.4-.8-.6-1.7-.6-2.8v-6.3h4.5v5.7c0,.7.2,1.3.6,1.7s.9.6,1.6.6.9,0,1.3-.3.6-.5.8-.9c.2-.4.3-.8.3-1.4l1.4.7c-.2,1.2-.5,2.2-1,3s-1.1,1.4-1.9,1.8c-.7.4-1.5.6-2.4.6ZM729.3,282.4l-.7-4.7v-6.6h4.5v7.3l.8,4h-4.5Z"/>
        <path class="st2" d="M734.8,271.2h4.6l.7,4v7.3h-4.5v-7.4l-.8-3.9ZM745.2,271v3.8c-.4,0-.8-.1-1.2-.2-.3,0-.7,0-1,0-.5,0-1,.1-1.5.3-.5.2-.8.6-1.1,1-.3.5-.4,1.2-.4,2l-.8-1c.1-.8.3-1.6.5-2.3.2-.7.5-1.4.8-1.9.4-.6.8-1,1.3-1.3.5-.3,1.2-.5,2-.5s.4,0,.6,0c.2,0,.5,0,.7,0Z"/>
        <path class="st2" d="M748.8,270.2c-.8,0-1.4-.2-1.8-.6-.5-.4-.7-.9-.7-1.6s.2-1.2.7-1.5c.5-.4,1.1-.6,1.8-.6s1.4.2,1.9.6c.5.4.7.9.7,1.5s-.2,1.2-.7,1.6-1.1.6-1.9.6ZM746.5,271l2.3.5,2.2-.5v11.5h-4.5v-11.5Z"/>
        <path class="st2" d="M760,282.8c-1.5,0-2.8-.2-3.9-.7-1.1-.5-2-1.2-2.6-2.1-.6-.9-.9-1.9-.9-3.1s.3-2.2.9-3.1c.6-.9,1.5-1.6,2.6-2.1,1.1-.5,2.4-.7,3.8-.7s2.8.2,3.9.7c1.1.5,2,1.2,2.6,2.1.6.9.9,1.9.9,3.1s-.3,2.2-.9,3.1c-.6.9-1.5,1.6-2.6,2.1-1.1.5-2.4.7-3.8.7ZM760,279.5c.6,0,1.1-.1,1.5-.3.4-.2.7-.5.9-.9.2-.4.3-.9.3-1.4s-.1-1-.3-1.4c-.2-.4-.5-.7-.9-.9s-.9-.3-1.5-.3-1.1.1-1.5.3-.7.5-1,.9c-.2.4-.3.9-.3,1.4s.1,1,.3,1.4c.2.4.5.7,1,.9.4.2.9.3,1.5.3Z"/>
        <path class="st2" d="M773.7,282.8c-1,0-2-.2-2.7-.6-.8-.4-1.3-1-1.7-1.8-.4-.8-.6-1.7-.6-2.8v-6.3h4.5v5.7c0,.7.2,1.3.6,1.7s.9.6,1.6.6.9,0,1.3-.3.6-.5.8-.9c.2-.4.3-.8.3-1.4l1.4.7c-.2,1.2-.5,2.2-1,3s-1.1,1.4-1.9,1.8c-.7.4-1.5.6-2.4.6ZM778.4,282.4l-.7-4.7v-6.6h4.5v7.3l.8,4h-4.5Z"/>
        <path class="st2" d="M798,278.7c0,.9-.3,1.7-.8,2.3-.6.6-1.3,1.1-2.4,1.4-1,.3-2.2.5-3.6.5s-2.7-.2-3.8-.5c-1.1-.3-1.9-.8-2.5-1.5-.6-.6-.9-1.4-1-2.2h4.6c0,.3.3.5.5.7s.6.3,1,.5.9.2,1.5.2,1.2,0,1.6-.2c.4-.2.6-.4.6-.7s-.1-.4-.4-.5c-.3-.1-.8-.2-1.5-.2h-1.9c-1.4-.2-2.5-.4-3.3-.7-.8-.3-1.4-.7-1.8-1.2-.4-.5-.5-1-.5-1.7s.3-1.6.8-2.2,1.3-1,2.3-1.3c1-.3,2.1-.4,3.5-.4s2.5.2,3.5.5c1,.3,1.8.8,2.4,1.4.6.6,1,1.3,1.1,2.1h-4.6c0-.2-.2-.5-.4-.7s-.5-.3-.8-.5-.8-.2-1.3-.2-1.1,0-1.5.2c-.3.2-.5.4-.5.6s.1.4.3.5c.2.1.6.2,1.2.2l2.5.2c1.4,0,2.4.3,3.2.5.8.3,1.3.7,1.7,1.1.3.5.5,1,.5,1.7Z"/>
        <path class="st2" d="M801.6,282.7c-.5,0-.9-.1-1.3-.3-.4-.2-.7-.5-.9-.9s-.3-.8-.3-1.3.1-.9.3-1.3c.2-.4.5-.7.9-.9.4-.2.8-.3,1.3-.3s.9.1,1.3.3c.4.2.7.5.9.9.2.4.3.8.3,1.3s-.1.9-.3,1.3c-.2.4-.5.7-.9.9-.4.2-.8.3-1.3.3Z"/>
      </g>
    </g>
  </g>
</svg>